<?xml version="1.0" encoding="utf-8"?>
<svg width="18px" height="16px" viewBox="0 0 18 16" version="1.1" xmlns:xlink="http://www.w3.org/1999/xlink" xmlns="http://www.w3.org/2000/svg">
  <desc>Created with Lunacy</desc>
  <path d="M16.95 2.42C17.09 2.18 17.16 1.90667 17.16 1.6C17.16 1.29333 17.09 1.02 16.95 0.78C16.81 0.539999 16.6167 0.350001 16.37 0.21C16.1234 0.0699993 15.8534 0 15.56 0C15.2667 0 14.9967 0.0699993 14.75 0.21C14.5034 0.350001 14.31 0.539999 14.17 0.78C14.03 1.02 13.96 1.29333 13.96 1.6C13.96 1.90667 14.03 2.18 14.17 2.42C14.31 2.66 14.5034 2.85 14.75 2.99C14.9967 3.13 15.2667 3.2 15.56 3.2C15.8534 3.2 16.1234 3.13 16.37 2.99C16.6167 2.85 16.81 2.66 16.95 2.42ZM4.95 15.0599C5.69 15.2999 6.48 15.4199 7.32 15.4199C8.33334 15.4199 9.26666 15.2566 10.12 14.9299C10.9733 14.6033 11.7067 14.1399 12.32 13.5399C12.9333 12.9399 13.41 12.2266 13.75 11.3999C14.09 10.5733 14.26 9.66659 14.26 8.67992L14.26 7.17992L10.66 7.17992L7.66 9.63992L11.2 9.63992C11.12 10.2533 10.9133 10.7866 10.58 11.2399C10.2467 11.6933 9.81334 12.0466 9.28 12.2999C8.74666 12.5533 8.14 12.6799 7.46 12.6799C6.82 12.6799 6.23334 12.5633 5.7 12.3299C5.16666 12.0966 4.70334 11.7666 4.31 11.3399C3.91666 10.9133 3.61333 10.4066 3.4 9.81992C3.18667 9.23325 3.08 8.59326 3.08 7.89992C3.08 7.21992 3.18667 6.59326 3.4 6.01992C3.61333 5.44659 3.91333 4.94326 4.3 4.50992C4.68667 4.07659 5.14 3.74326 5.66 3.50992C6.18 3.27659 6.74666 3.15992 7.36 3.15992C8.10667 3.15992 8.76333 3.33325 9.33 3.67992C9.89667 4.02659 10.72 5.15992 10.72 5.15992L12.15 2.19992C12.15 2.19992 10.8133 1.18659 10 0.879922C9.18666 0.573254 8.30667 0.419922 7.36 0.419922C6.52 0.419922 5.73 0.543254 4.99 0.789922C4.25 1.03659 3.57334 1.38325 2.96 1.82992C2.34666 2.27659 1.82 2.81325 1.38 3.43992C0.939998 4.06659 0.600001 4.75992 0.36 5.51992C0.119999 6.27993 0 7.09325 0 7.95992C0 8.82659 0.119999 9.63659 0.36 10.3899C0.600001 11.1433 0.936665 11.8266 1.37 12.4399C1.80334 13.0533 2.32333 13.5833 2.93 14.0299C3.53667 14.4766 4.21 14.8199 4.95 15.0599Z" id="Gigalixir" fill="#2E363E" fill-rule="evenodd" stroke="none" />
</svg>